<svg id="visual" viewBox="0 0 960 540" width="960" height="540" xmlns="http://www.w3.org/2000/svg" xmlns:xlink="http://www.w3.org/1999/xlink" version="1.1"><rect x="0" y="0" width="960" height="540" fill="#182240"></rect><path d="M0 473L10 473.5C20 474 40 475 60 456.8C80 438.7 100 401.3 120 386.5C140 371.7 160 379.3 180 404.8C200 430.3 220 473.7 240 465.2C260 456.7 280 396.3 300 388.5C320 380.7 340 425.3 360 434.8C380 444.3 400 418.7 420 426.2C440 433.7 460 474.3 480 472.5C500 470.7 520 426.3 540 412.5C560 398.7 580 415.3 600 429C620 442.7 640 453.3 660 455C680 456.7 700 449.3 720 431.8C740 414.3 760 386.7 780 372.2C800 357.7 820 356.3 840 361.3C860 366.3 880 377.7 900 374C920 370.3 940 351.7 950 342.3L960 333L960 541L950 541C940 541 920 541 900 541C880 541 860 541 840 541C820 541 800 541 780 541C760 541 740 541 720 541C700 541 680 541 660 541C640 541 620 541 600 541C580 541 560 541 540 541C520 541 500 541 480 541C460 541 440 541 420 541C400 541 380 541 360 541C340 541 320 541 300 541C280 541 260 541 240 541C220 541 200 541 180 541C160 541 140 541 120 541C100 541 80 541 60 541C40 541 20 541 10 541L0 541Z" fill="#42C9A3" stroke-linecap="round" stroke-linejoin="miter"></path></svg>