<svg id="visual" viewBox="0 0 960 540" width="960" height="540" xmlns="http://www.w3.org/2000/svg" xmlns:xlink="http://www.w3.org/1999/xlink" version="1.1"><rect x="0" y="0" width="960" height="540" fill="#182240"></rect><path d="M0 360L32 338.3C64 316.7 128 273.3 192 251.5C256 229.7 320 229.3 384 246.3C448 263.3 512 297.7 576 271.8C640 246 704 160 768 114.2C832 68.3 896 62.7 928 59.8L960 57L960 0L928 0C896 0 832 0 768 0C704 0 640 0 576 0C512 0 448 0 384 0C320 0 256 0 192 0C128 0 64 0 32 0L0 0Z" fill="#42C9A3" stroke-linecap="round" stroke-linejoin="miter"></path></svg>